<?xml version="1.0" encoding="UTF-8"?>
<!--Generator: Apple Native CoreSVG 232.5-->
<!DOCTYPE svg
PUBLIC "-//W3C//DTD SVG 1.1//EN"
       "http://www.w3.org/Graphics/SVG/1.1/DTD/svg11.dtd">
<svg version="1.1" xmlns="http://www.w3.org/2000/svg" xmlns:xlink="http://www.w3.org/1999/xlink" width="78.8489" height="78.7239">
 <g>
  <rect height="78.7239" opacity="0" width="78.8489" x="0" y="0"/>
  <path d="M39.3151 78.6614C60.9438 78.6614 78.6614 60.9438 78.6614 39.3463C78.6614 17.7175 60.9351 0 39.3063 0C17.7088 0 0 17.7175 0 39.3463C0 60.9438 17.7175 78.6614 39.3151 78.6614ZM39.3151 76.1112C19.0351 76.1112 2.55888 59.6263 2.55888 39.3463C2.55888 19.0351 19.0263 2.55888 39.3063 2.55888C59.6175 2.55888 76.1025 19.0351 76.1025 39.3463C76.1025 59.6263 59.6038 76.1112 39.3151 76.1112Z" fill="#ffffff" fill-opacity="0.85"/>
  <path d="M39.2613 25.2363C33.4213 25.2363 25.0001 24.2226 20.9951 23.6513C20.6513 23.5888 20.2763 23.4951 19.8788 23.4951C18.8476 23.4951 17.7713 24.3613 17.7713 25.8526C17.7713 26.9688 18.4276 27.9513 19.5126 28.2013C20.8388 28.5313 30.2913 29.6926 31.4701 29.9113C32.6488 30.1076 33.3588 31.1213 33.4213 32.5726C33.4663 34.7201 33.4213 41.5963 32.8676 44.7351C32.3451 47.8563 28.7463 62.8363 28.5901 63.4613C28.1751 65.0913 29.1213 66.5425 30.7513 66.5425C31.8763 66.5425 32.7113 65.8725 33.1176 64.3275C33.9263 61.3588 36.4351 50.9325 37.3238 48.4188C37.8688 46.6688 38.2388 45.9676 39.2613 45.9676C40.2976 45.9676 40.7126 46.6238 41.3201 48.4188C42.0838 50.9013 44.6551 61.305 45.4188 64.3275C45.7801 65.8725 46.66 66.5425 47.785 66.5425C49.4238 66.5425 50.3525 65.0913 49.9463 63.4613C49.7988 62.8363 46.1376 47.8563 45.6688 44.7351C45.1776 41.5963 45.1776 34.7201 45.1776 32.5726C45.1776 31.1213 45.8876 30.1613 47.0663 29.9113C48.245 29.6476 57.6975 28.6163 59.0238 28.2013C60.1088 27.8526 60.765 26.9688 60.765 25.8526C60.765 24.3613 59.6263 23.4951 58.6575 23.4951C58.26 23.4951 57.885 23.5888 57.5413 23.6513C53.5363 24.2226 45.1776 25.2363 39.2613 25.2363ZM39.2613 22.5126C42.2351 22.5126 44.6463 20.1063 44.6463 17.1413C44.6463 14.1588 42.2351 11.7476 39.2613 11.7476C36.3013 11.7476 33.8901 14.1588 33.8901 17.1413C33.8901 20.1063 36.3013 22.5126 39.2613 22.5126Z" fill="#ffffff" fill-opacity="0.85"/>
 </g>
</svg>
